<!-- Maintaining this for future edit. -->
<svg xmlns="http://www.w3.org/2000/svg" viewBox="0 0 300 300" width="300" height="300">
  <!-- Vue.js Logo Background -->
  <path
    fill="#FFEA00"
    d="M213.39,0H48.36L130.89,130.07L213.39,0Z"
  />
  <path
    fill="#F8C202"
    d="M130.89,130.07L48.36,0L0,0L130.89,226.69L261.76,0H213.39L130.89,130.07Z"
  />
  <!-- Syringe Icon -->
  <g transform="translate(-32, -45) scale(2.5)"> <!-- Centered and enlarged -->
    <linearGradient id="a" x1="22.916" x2="105.084" y1="64.015" y2="64.015" gradientUnits="userSpaceOnUse">
      <stop offset="0" stop-color="#ec2aff"/>
      <stop offset=".187" stop-color="#c936ff"/>
      <stop offset=".599" stop-color="#7153ff"/>
      <stop offset="1" stop-color="#1572ff"/>
    </linearGradient>
    <path fill="url(#a)" d="M102.084,99.599c-0.802,0-1.555-0.313-2.122-0.879L87.491,86.248l-18.197-3.595     c-0.585-0.115-1.117-0.399-1.54-0.822l-5.039-5.039c-0.01-0.009-0.02-0.018-0.028-0.026c-0.011-0.011-0.022-0.022-0.033-0.034     L31.102,45.18c-0.567-0.566-0.879-1.32-0.879-2.121s0.312-1.555,0.879-2.121l5.54-5.539l-3.065-3.064l-5.539,5.539     c-1.133,1.134-3.11,1.133-4.243,0c-0.566-0.566-0.878-1.319-0.878-2.121s0.312-1.555,0.879-2.122L39.117,18.31     c1.133-1.134,3.11-1.133,4.243,0c0.566,0.566,0.878,1.319,0.878,2.121s-0.312,1.555-0.879,2.122l-5.541,5.54l3.064,3.064     l5.541-5.54c1.133-1.134,3.109-1.134,4.242,0l36.65,36.651c0.422,0.422,0.707,0.955,0.822,1.54l3.595,18.197l12.472,12.473     c0.567,0.566,0.879,1.32,0.879,2.121s-0.312,1.555-0.879,2.122C103.639,99.286,102.886,99.599,102.084,99.599z M64.1,75.349     c0.002,0.002,0.004,0.004,0.007,0.007l5.062,5.062c0.141,0.141,0.318,0.235,0.513,0.274l18.496,3.654     c0.194,0.038,0.373,0.134,0.513,0.274l12.687,12.687c0.378,0.378,1.037,0.377,1.414,0c0.189-0.189,0.293-0.44,0.293-0.708     s-0.104-0.518-0.293-0.707L90.104,83.204c-0.14-0.14-0.236-0.319-0.274-0.513l-3.653-18.496     c-0.039-0.195-0.133-0.373-0.274-0.513L49.252,27.03c-0.378-0.378-1.036-0.378-1.414,0l-6.248,6.247     c-0.391,0.391-1.023,0.391-1.414,0l-4.479-4.479c-0.188-0.188-0.293-0.442-0.293-0.707s0.105-0.52,0.293-0.707l6.248-6.247     c0.189-0.189,0.293-0.44,0.293-0.707s-0.104-0.518-0.293-0.707c-0.378-0.379-1.037-0.378-1.414,0L25.209,35.045     c-0.189,0.189-0.293,0.44-0.293,0.707s0.104,0.518,0.293,0.707c0.378,0.379,1.036,0.378,1.414,0l6.246-6.246     c0.391-0.391,1.023-0.391,1.414,0l4.479,4.479c0.188,0.188,0.293,0.442,0.293,0.707s-0.105,0.52-0.293,0.707l-6.247,6.246     c-0.186,0.187-0.293,0.444-0.293,0.707s0.107,0.521,0.293,0.707l31.578,31.577C64.095,75.344,64.098,75.346,64.1,75.349z"/>
  </g>
</svg>